<svg xmlns="http://www.w3.org/2000/svg" width="24" height="24" viewBox="0 0 24 24" fill="none" stroke="#ffffff" stroke-width="2" stroke-linecap="round" stroke-linejoin="round"><path d="M9.5 9.5c-.83 0-1.5-.67-1.5-1.5s.67-1.5 1.5-1.5 1.5.67 1.5 1.5-.67 1.5-1.5 1.5z"/><path d="M14.5 9.5c-.83 0-1.5-.67-1.5-1.5s.67-1.5 1.5-1.5 1.5.67 1.5 1.5-.67 1.5-1.5 1.5z"/><path d="M12 2C6.48 2 2 5.58 2 10c0 2.24 1.12 4.26 2.93 5.7L4 20l4.35-2.17C9.5 18.28 10.73 18.5 12 18.5c5.52 0 10-3.58 10-8S17.52 2 12 2z"/></svg>
